<?xml version="1.0" encoding="UTF-8"?>
<svg xmlns="http://www.w3.org/2000/svg" version="1.1" viewBox="0 0 761.98 428.62">
  <defs>
    <style>
      .cls-1 {
        fill: #fff184;
      }
    </style>
  </defs>
  <!-- Generator: Adobe Illustrator 28.7.3, SVG Export Plug-In . SVG Version: 1.2.0 Build 164)  -->
  <g>
    <g id="Ebene_1">
      <path id="Pfad_5-2" class="cls-1" d="M423.67,331.28c-3.59.29-6.89-.85-10.26-1.6-3.45-.94-7.06-1.13-10.58-.54-1.71.49-3.32,1.26-4.76,2.29-3.28,2.06-6.42,4.33-9.69,6.41-4.4,3.03-10.2,3.1-14.68.19-3-1.77-5.85-3.8-8.72-5.78-3.25-2.48-7.3-3.69-11.38-3.41-3.79.32-7.35,1.62-11.06,2.18-4,.6-8.1,1.26-11.83-1.3-2.54-1.74-4.2-4.21-5.86-6.7-1.93-2.89-3.6-5.98-5.79-8.65-2.37-2.81-5.65-4.69-9.28-5.3-2.55-.49-5.11-.97-7.64-1.54-2.28-.42-4.52-1.01-6.71-1.76-3.96-1.55-6.03-4.74-6.9-8.84-1-4.72-1.97-9.46-3.16-14.13-.87-2.97-2.77-5.53-5.36-7.22-2.26-1.64-4.6-3.16-6.97-4.64-3-1.73-5.64-4.02-7.76-6.76-.8-1.18-1.29-2.55-1.41-3.97-.13-2.05-.05-4.11.26-6.14.3-2.23.91-4.41,1.32-6.62.48-2.17.84-4.37,1.07-6.58.34-4.55-1.75-8.24-4.35-11.81-2.53-3.48-5.35-6.85-6.64-11.05-1.06-3.36-.6-7.01,1.25-10.01,1.92-3.23,4.1-6.31,6.13-9.47,1-1.56,1.99-3.13,2.87-4.75.39-.73.63-1.53.69-2.35.3-3.06.03-6.14-.8-9.1-.53-1.71-.95-3.45-1.25-5.22-.33-1.92-.49-3.88-.66-5.82-.38-4.24,1.61-7.46,4.68-10.04,1.92-1.62,4.1-2.93,6.15-4.39,2.58-1.67,5.06-3.47,7.44-5.42,2.89-2.59,3.78-6.21,4.51-9.96.88-4.54,1.14-9.3,3.4-13.48,1.2-2.3,3.19-4.09,5.6-5.04,4.04-1.4,8.22-2.36,12.47-2.86,5.59-.88,10.1-3.39,13.12-8.42,2.01-3.35,4.2-6.58,6.57-9.69,2.42-3.17,5.69-5.05,9.84-4.54,3.9.36,7.77.99,11.59,1.87,5.73,1.51,10.88.9,15.68-2.64,2.54-1.87,5.21-3.56,7.75-5.43,4.85-3.31,11.22-3.36,16.13-.15,3.58,2.47,7.23,4.84,10.91,7.15,3.84,2.41,7.99,2.11,12.22,1.23,4.36-.91,8.62-2.22,13.2-2.08,3.42-.03,6.64,1.57,8.68,4.32,2.42,3.21,4.48,6.7,6.79,10,2.71,3.87,6,7,10.91,7.88,3.73.67,7.45,1.41,11.15,2.17,5.5,1.14,9.21,4.25,10.5,9.85.66,2.87,1,5.81,1.73,8.66.78,3.06,1.41,6.3,2.94,8.97,1.22,2.13,3.58,3.71,5.65,5.24,3.48,2.57,7.28,4.72,10.65,7.42,1.88,1.54,3.15,3.7,3.57,6.09.78,4.06-.17,7.82-1.08,11.67-.92,3.89-1.91,7.86-1.16,11.86.47,1.98,1.29,3.86,2.42,5.55,1.65,2.68,3.77,5.08,5.38,7.77,4.18,6.98,5.1,11.13-.03,19.05-2.02,3.11-4.14,6.16-6.15,9.27-2.32,3.58-2.08,7.47-1.29,11.43s1.78,7.93,2.21,11.94c.67,4.22-1.13,8.45-4.64,10.89-3.24,2.31-6.5,4.59-9.81,6.79-3.37,2.24-6.11,5.04-7.46,8.88-.71,2.03-.78,4.28-1.25,6.41-.61,3.32-1.41,6.61-2.39,9.84-1.11,3.39-3.88,5.98-7.33,6.88-2.63.74-5.37,1.11-8.04,1.75-3.16.63-6.27,1.47-9.31,2.52-3.68,1.43-5.78,4.74-7.93,7.87-2.09,3.04-4.04,6.18-6.3,9.09-2.3,2.99-6.06,4.46-9.78,3.81"/>
    </g>
  </g>
</svg>